<svg xmlns="http://www.w3.org/2000/svg" width="70" height="130" viewBox="223 127 70 130">
  <g id="Layer_2" data-name="Layer 2">
    <g id="LOGO">
      <path d="M276.72749,195.625a6.514,6.514,0,0,0,.6778.6045c.0664-.1318.1172-.2207.1582-.3135a25.32669,25.32669,0,0,0,.6855-2.6904c.7393-1.0254,1.6592-2.3135,2.4004-3.3906q-.627,1.31985-1.2539,2.6377c-.5371,1.123-.8496,3.7529-1.2715,4.918a.33576.33576,0,0,0,.0684.3183,5.00188,5.00188,0,0,1,.67771,1.5283c.00979.0489.02539.0967.03709.1455a5.91994,5.91994,0,0,0,.336,1.2295,11.81313,11.81313,0,0,1-.3145,4.6905l2.7373-5.2979,3.20311-1.5859,6.04589-7.1807c-.999.4277-1.87689.6846-1.8925.2725-.02839-.7403.0048-5.0596.0048-5.0596l-.2334-6.4492s-.08-3.6094-.08-5.9942q.00435-.5595.0088-1.1181c.0078-.375.0185-.6709.0371-.8203.0136-.1123.0029-.1182-.0303-.0352q.019-2.5473.041-5.0937c.0137-1.2813.0488-2.5665.0469-3.8506a11.88706,11.88706,0,0,1,.0859-1.9336c.1543-.9336.2451-1.8789.3457-2.8223l-6.0547,14.0674,1.4834-5.5137c.0059-.0332.0108-.0654.0166-.0976.59381-3.3828,1.9453-6.6621,2.5684-10.0401q.3969-2.15175.9043-4.2724c.0322-.1397.0596-.2813.0937-.4209.0997-.4121.208-.8223.3106-1.2334-.1524.5478-.2725,1.1025-.4043,1.6543-.2568,1.1074-.4775,2.2226-.71289,3.3379-.06641.3095-.13481.621-.19141.9345-.0938.5235-.18559,1.0469-.2793,1.5694l3.7051-13.7676c-.0039-.0371.0019-.0752-.0039-.1123l.0009-.002c.1172-.4599,1.125-7.7031,1.125-7.7031s-3.3056,10.0303-3.6689,11.1875c-.23049.7285-.9453,1.1143-1.1621,1.8438-.5059,1.707-7.2363,23.0771-7.31639,23.4697-.11131.54-1.457,2.959-1.55671,3.5-.3085,1.7217-.2675,3.9062-.77729,5.583-1.04881,3.4209-1.041,7.5312-1.27731,8.2363-.1778.5195-.3731,2.46-.55669,2.9795-.10351.2871-.20511.5762-.30861.8721a1.96522,1.96522,0,0,0,.1699.1152A4.48031,4.48031,0,0,1,276.72749,195.625Zm-34.7563,39.4883a1.57516,1.57516,0,0,0-.2568-.666,1.36753,1.36753,0,0,1-.1954-.4297q-.24165-1.00335-.4521-2.0156a.54151.54151,0,0,0-.2109-.334,13.51217,13.51217,0,0,1-2.1744-2.4639c-.0869-.1084-.1743-.2168-.2612-.3252.26471-.0127.2422-.0615.4902-.1328l-.20649-.2578-2.29931-6.2461,4.2085,7.2022.0122.0136a5.00152,5.00152,0,0,0-.1152-.9541c-.2969-1.4619-.6065-2.9228-.8907-4.3886-.1259-.6426-.2109-1.2959-.3056-1.9434-.0996-.6914-.1885-1.3857-.2842-2.0791-.0606-.4277-.1475-.8574-.1895-1.2881-.07219-.751-.1269-1.498-.1758-2.251-.0761-1.2168-.1435-1.0078-.2109-2.2255-.02149-.3907-.0244-.7823-.0293-1.1758-.0019-.127-.0234-.2295-.1543-.2823a6.41757,6.41757,0,0,1-1.789-1.2226c-.1338-.1182-.2603-.2442-.3907-.3652-1.0591-6.253-3.2221-6.5625-4.49119-9.0479-2.02831-1.2998-4.77831-3.126-4.77831-3.126l-3.8535-3.1953s.9663,2.1221,2.3081,5.0762c.1684.4736.3345.9482.5083,1.4219.4101,1.1123.832,2.2177,1.2441,3.33q.42046,1.1265.834,2.2608.6915,1.88085,1.3799,3.7568c.21.5762.3965,1.1621.6201,1.7344.5088,1.2891,1.03131,2.5742,1.5488,3.8613.0821.2061.14651.419.2354.624.2158.5059.4424,1.0059.6602,1.5088.2988.6905.5937,1.3838.8886,2.0733a12.13093,12.13093,0,0,1,.4785,1.1416c.2491.7744.4737,1.5586.6846,2.3457a18.95671,18.95671,0,0,0,.9111,2.5703,3.08016,3.08016,0,0,0,.1788.3369,19.378,19.378,0,0,0,1.6464,2.332c.1495.1768.3125.3438.4532.5264.6845.8867,1.3623,1.7773,2.0478,2.6611q.6504.8394,1.3174,1.668c.3799.4678.77051.9268,1.1582,1.3867a2.77136,2.77136,0,0,0,.2187.2071.32737.32737,0,0,1,.0567-.0332c-.0234-.087-.0469-.1739-.0684-.2579C242.17239,236.002,242.04149,235.5615,241.97119,235.1133Zm-18.9424-91.1465a4.31087,4.31087,0,0,1-.0185.5391,2.17817,2.17817,0,0,0,.0771.8506,3.58928,3.58928,0,0,1,.1318,1.0654q-.02625,2.2149-.0312,4.4248a4.23655,4.23655,0,0,0,.0723.9844c.1884.791.3789,1.5879.6445,2.3564.2959.8565.5957,1.7129.8926,2.5694a11.28517,11.28517,0,0,0,.1484,1.9072l1.875,6.1504-3.5098-8.4024v.9854c-.00189.584-.0058,1.166-.00389,1.7471a3.37313,3.37313,0,0,0,.03519.79c.1196.4824.2261.9678.3559,1.4473l.8208,1.6865,1.4239,4.2236,3.1264,8.0674-5.6274-8.5068c.0015.164.0019.3271.0088.4922.0293.6357.0615,1.2695.0947,1.9052a5.86163,5.86163,0,0,0,.0586.6309c.0508.3369.1504.664.1738,1.0019a11.44142,11.44142,0,0,0,.125,1.2315c.15531.8838.2735,1.7744.4317,2.6572.1142.6377.2851,1.2617.4101,1.8984.1973.9961.35451,2.002.5733,2.9952.0175.0791.0254.1572.041.2363a29.59522,29.59522,0,0,0-.0415,3.1826.66162.66162,0,0,0,.0649.3467c-.2378.2705.0904,6.6016.0904,6.6016a19.42762,19.42762,0,0,0,.3793,5.2792c0,.0049,1.8946,2.5391,2.0167,2.7168a8.87817,8.87817,0,0,0,.6035.7305,8.40947,8.40947,0,0,0,3.2207,2.2871,1.95154,1.95154,0,0,1,.4721.3086c1.22811,1.7412,2.6553,3.5264,3.1294,3.3819.0025-.0069-.0581-.1348-.13029-.3584l.00239.0009c-.0332-.5849-.2363-1.4453-.2363-2.1465a5.68428,5.68428,0,0,1,.2363-1.6201,21.16,21.16,0,0,1,.7314-2.4472c.0328-.0616.0528-.128.0879-.1885a.70232.70232,0,0,0,.087-.249,8.14314,8.14314,0,0,1,1.3491-2.335,7.60468,7.60468,0,0,1,.7251-.6103c.16311-.1182.1416-.2569.1064-.42-.2607-1.2441-.5781-3.9013-.7109-5.1699-.0742-.7168-.23339-1.4238-.3477-2.1338-.1689-1.0801-.3144-2.1621-.5088-3.2353a8.61569,8.61569,0,0,0-.417-1.5303c-.2275-.5918-.54589-1.1455-.79-1.7324a10.15254,10.15254,0,0,1-.4844-1.4082c-.2617-1.0469-.4804-2.1055-.7246-3.1563-.1347-.5762-.2646-1.1582-.4258-1.7256q-.66795-2.3364-1.3593-4.6679c-.2696-.9141-.5547-1.8233-.8233-2.7325-.18549-.6308-.39549-1.2587-.5224-1.9003a35.54313,35.54313,0,0,0-1.5303-4.8067c-.3643-1.0508-.7861-2.081-1.1289-3.1377-.3252-1.0078-.5742-2.039-.8682-3.0576-.7529-2.6152-1.51369-5.2305-2.26269-7.8457-.32711-1.1318-.63381-2.2647-.94721-3.3984-.0381-.1319-.05379-.2705-.0967-.4024-.08109-.2539-.1865-.501-.2608-.7578-.1006-.3545-.167-.7187-.2744-1.0723-.2002-.6709-.416-1.3349-.62889-2-.00581-.0185-.04981-.0293-.081-.0468a1.02715,1.02715,0,0,0-.09281.6533C222.98389,140.7207,223.00829,142.3418,223.02879,143.9668Zm65.7651,52.5459-6.71479,4.2041-3.39551,5.5733a25.7099,25.7099,0,0,1-2.3887,5.7539c-.0137.0244-.0176.0449-.0293.0693-.4052.3174-.7763.582-.7763.582l-.5625.4551-.0098.126s-.043.3975-.0723.5957c-.0254.1768-.0801.3535-.0898.5342-.05079.8213-.0996,1.6504-.1367,2.4765-.0703,1.5577-.1192,3.1153-.2012,4.6739-.0254.4843-.1328.9648-.2012,1.4472-.0683.4707-.13869.9444-.2148,1.4756.4804-.6426.95311-1.2129,1.3633-1.8271.4921-.7373.9296-1.5117,1.3925-2.2696.2071-.3408.3858-.6963.5684-1.0498a3.76616,3.76616,0,0,0,.5244-.081l2.4268-3.4512-3.7227,8.6787-.9658.6026c-.17479.3437-.3467.6875-.5205,1.0312-.086.1699-.1309.3584-.209.5313a6.687,6.687,0,0,1-.3145.6582,2.10641,2.10641,0,0,0-.375,1.2255.8936.8936,0,0,1-.0195.1885c-.11329.8828-.2558,1.7627-.334,2.6504-.1172,1.3311-.31829,2.6524-.5566,3.9668a12.40688,12.40688,0,0,0-.2285,2.6885c.0039.0967.0156.1914.0215.29h.0605c.082-.1875.1641-.375.2422-.5644q1.11915-2.6397,2.2324-5.2783c.3496-.8272.70121-1.6563,1.0625-2.4786.3906-.8925.7598-1.7978,1.1934-2.667.7011-1.4003,1.4472-2.7763,2.1777-4.164.4727-.8994.93161-1.8018,1.4219-2.6904a27.71164,27.71164,0,0,0,1.334-2.9512c.2265-.5557.4082-1.1328.6269-1.6963.2383-.6211.4942-1.2344.7442-1.8535.18161-.4512.3769-.8975.5488-1.3516.2266-.6045.4316-1.2148.6504-1.8203.0957-.2695.1992-.5371.2988-.8047.1602-.4355.3223-.8711.47461-1.3086.17189-.4873.36329-.9736.49609-1.4726.17291-.6631.33991-1.3291.5088-1.9942,1.82711-5.0928,4.8877-11.6611,6.1309-14.2734Zm-30.4726,10.1865a14.19045,14.19045,0,0,1,.4101-1.7949c.2793-.8213.6446-1.6123.9688-2.415.2383-.5908.4863-1.1758.7012-1.7725a5.63853,5.63853,0,0,1,.7949-1.6142c.2539-.3282.50981-.6494.7676-.9727.0293-.04.0664-.0869.0976-.1279.3672-.2715.7842-.5752,1.30861-.9473-.02151-.166-.04691-.2998-.05861-.4375-.0918-1.0566-.1816-3.542-.2715-4.5967q-.28125-3.32805-.5605-6.6572c-.0723-.8555-.1367-1.7119-.209-2.5684-.1172-1.374-.2383-2.747-.3555-4.121q-.11715-1.39755-.2304-2.7891-.1173-1.44585-.23249-2.8867c-.02341-.2959-.02731-.5918-.05661-.8907-.0996-1.0097-.209-2.0244-.3027-3.0351-.0762-.8242-.1348-1.6484-.2032-2.4756-.08-.9697-.1718-1.9424-.2421-2.9102-.0528-.7529-.0821-1.5039-.1192-2.2587-.0137-.2842-.0195-.5713-.03119-.8565-.01571-.4355-.03131-.8691-.05081-1.3027-.0098-.2324-.0371-.4668-.043-.6983-.0429-1.581-.07419-3.1621-.11519-4.7421-.02541-.8799-.04691-1.7588-.09571-2.6368-.0488-.8691-.0957-1.7382-.2031-2.6015-.2168-1.7764-.4766-3.5498-.7168-5.3252q-.3927-2.88435-.77739-5.7666c-.082-.6074-.13471-1.2217-.21481-1.833-.1778-1.3213-1.4405-8.9981-1.4405-8.9981a10.18408,10.18408,0,0,1-.2143,1.3867.4699.4699,0,0,0-.0117.1875c.02831.2442.8501,13.4444.9341,14.7569.0878,1.3789.164,2.7539.2636,4.1289.0742,1.0146.18561,2.0273.2735,3.042.0322.3701.0605.7402.0937,1.1103a1.245,1.245,0,0,0-.1084-.2011c-.1514-.2178-.3994-.625-.69919-1.1329-.02051-.1972.32229,10.6875.32229,10.6875l-2.78229-26.5947a20.03154,20.03154,0,0,0-1.26611,4.4063,11.14349,11.14349,0,0,1-1.271,2.5058l.0293.8262c-.0356.4453-.0688.8633-.0991,1.2744-.03609.4854-.0605.9736-.1006,1.459-.0918,1.1221-.1914,2.2412-.2851,3.3613q-.1173,1.396-.2266,2.792c-.0762.9072-.168,1.8164-.21779,2.7256-.03121.5488-.00581,1.1035.01169,1.6562.0557,1.6729.1368,3.3506.1758,5.0274.02151,1.0146-.039,2.0332.0254,3.0498a17.91811,17.91811,0,0,1-.0752,3.7168c-.0918.6269-.0869,1.2676-.126,1.9004-.0175.3213-.0293.6387-.0556.9551-.0313.3369-.0674.6728-.1192,1.0078-.0576.3623-.1455.7246-.206,1.0908q-.40575,2.4624-.8008,4.9277c-.0947.5987-.1953,1.1914-.2705,1.791-.0918.7461-.1602,1.4932-.2383,2.2422-.0517.5049-.1152,1.0108-.1562,1.5157-.043.5419-.0606,1.0839-.0997,1.623-.0419.5918-.1279,1.1816-.1445,1.7734-.0478,1.877-.0732,3.7569-.1094,5.6329-.0219,1.08.04151,3.5224-.1176,4.6543-.0284.1162-.0362.2011-.0005.2216-.1392,1.1455.603.878,2.1294,2.1543-.00879.0205-.0181.0508-.0269.0655a2.10792,2.10792,0,0,0,.2774.2539,2.87625,2.87625,0,0,1,.5009.3828l.0039.0039a5.00827,5.00827,0,0,1,.4268.4629,7.35739,7.35739,0,0,1,1.3809,2.6601,9.37521,9.37521,0,0,1,.2695,1.7549c.0625.6113.0713,1.2295.125,1.8399.0508.5918.1348,1.1787.1963,1.7705.1152,1.1289.1172.8379.2627,1.9658.0698.5469.1152,1.0986.1533,1.6514a23.22833,23.22833,0,0,0-.6689,4.1826c-.0523.6347-.127,1.2304-.2168,1.7968-.00489-.0586-.00589-.1181-.0108-.1767-.0654-.8145-.1474-1.627-.2158-2.4414-.0889-1.0332-.40329-2.2588-.5195-3.2881a5.42227,5.42227,0,0,0-.13479-.8057c-.01171-.0654-.03711-.1299-.05471-.1953a1.457,1.457,0,0,0-.0527.4756,1.26661,1.26661,0,0,1-.2139.7188c-.1182.1835-.21969.3828-.3301.5751a2.47127,2.47127,0,0,1-.2627.4336,8.84563,8.84563,0,0,1-1.6074,1.6514c-.0137.0078-.0176.0361-.01949.041.08009.2881.16939.8535.33589,1.377a11.85317,11.85317,0,0,1,.668,2.6113c.0732.4697.1035.9453.1582,1.4209.084.7344.2012,1.4688.25491,2.208.05559.7598.05559,1.5254.07419,2.2891.0137.541,0,1.084.0322,1.624.0103.1797.0171.3574.0254.5371-.04.5244-.063,1.0703-.0561,1.6524.0024.2031.0092.4267.0195.663a8.02256,8.02256,0,0,1-.1626.9405,1.43712,1.43712,0,0,1-.47659.9316c.06839.2891.13279.5352.18749.7822.2657,1.2227.52151,2.4473.8799,3.6446.0938.3125.1807.6318.2481.9521.0966.4668.165.9385.2587,1.4072.0132.0635.0342.126.05081.1885.20359,1.3194.41409,2.5117.607,3.4199.00339.0157-.00251.0274.00239.043.0107.0361.02.0732.0303.1094.0215.0976.0434.2041.0644.2949a.42222.42222,0,0,0,.0884.251c.0996.3418.2046.6816.2876,1.0283.1543.6338.2676,1.2813.4111,1.9238.1289.5742.2823,1.1504.4102,1.7276.1582.705.293,1.4111.4521,2.1142.2256,1.003.4336,2.0108.7041,3.001.211.7666.503,1.5127.7657,2.2656q.48557,1.39605.976,2.7871a2.70151,2.70151,0,0,0,.1211.2608c.043-.3809.0801-.6963.1211-1.0108.0938-.7568.1953-1.5156.2891-2.2734.0996-.8086.19141-1.6211.291-2.4297.0645-.5361.1406-1.0742.2012-1.6094.0664-.5566.1094-1.1172.1797-1.6728.0527-.4297.1543-.8545.1953-1.2842.0644-.7275.0957-1.4619.1484-2.1894a2.56076,2.56076,0,0,1,.1035-.752,6.4708,6.4708,0,0,0,.2911-1.2354c.1445-.7451.2949-1.4921.4394-2.2265-.0137-.0147-.0273-.0303-.042-.0449.0586-.3614.1182-.7686.1777-1.2295.3047-1.5352.5694-4.1172.8448-5.626.1621-.8721.2695-1.7568.3828-2.6387.084-.6299.1308-1.2646.2051-1.8974.1406-1.2188.2871-2.4375.4316-3.6612.082-.7031.1641-1.4082.2363-2.1142.0899-.8526.2051-1.708.2461-2.5635.0977-1.9912.1563-2.5576.2403-4.5508a.37348.37348,0,0,0-.211-.376,5.031,5.031,0,0,1-.8047-.6035,7.514,7.514,0,0,1-1.7773-2.9717,11.097,11.097,0,0,1-.3906-1.6347c-.0996-.5703-.1407-1.1533-.209-1.7315-.0235,0-.0488-.0019-.07229-.0019-.05271.2344-.125.4668-.15431.7041-.1855,1.5029-.375,1.5801-.539,3.0869-.1661,1.5185-.2373,3.043-.2696,4.5693-.25-1.6299-.5605-3.2949-.8906-4.9531l-.002-.0078a3.63906,3.63906,0,0,0,.1036-.6846A38.43332,38.43332,0,0,1,258.32129,206.6992Z" style="fill: #d70926"/>
    </g>
  </g>
</svg>
