<?xml version="1.0" encoding="UTF-8"?>
<svg xmlns="http://www.w3.org/2000/svg" xmlns:xlink="http://www.w3.org/1999/xlink" width="105px" height="91px" viewBox="148 28 105 91" version="1.1">
<path style="stroke:none;fill-rule:nonzero;fill:black;" d="M 186.496094 106.386719 C 186.496094 106.386719 198.109375 106.261719 200.980469 105.589844 C 200.980469 105.589844 193.714844 109.167969 186.765625 110.3125 L 183.769531 108.71875 Z M 186.496094 106.386719 "/>
<path style="stroke:none;fill-rule:nonzero;fill:black;" d="M 169.699219 104.667969 C 166.078125 106.019531 156.503906 105.976563 156.503906 105.976563 C 165.953125 109.207031 174.070313 109.332031 174.070313 109.332031 C 188.304688 119.023438 209.367188 116.445313 209.367188 116.445313 L 209.429688 116.019531 C 207.140625 116.386719 202.417969 115.464844 202.417969 115.464844 C 198.730469 115.21875 195.609375 113.929688 195.609375 113.929688 L 194.488281 113.992188 L 193.488281 113.6875 L 192.113281 113.195313 L 187.804688 111.539063 L 182.558594 108.289063 L 184.808594 106.386719 L 185.246094 106.324219 L 186.804688 105.097656 L 187.429688 104.914063 L 189.054688 103.566406 C 189.054688 103.566406 189.804688 102.398438 191.425781 101.847656 C 195.359375 99.269531 201.53125 93.136719 201.53125 93.136719 L 200.980469 93.199219 C 197.609375 95.773438 190.613281 98.902344 190.613281 98.902344 L 190.367188 99.824219 L 189.742188 99.332031 C 187.742188 100.496094 179.625 102.277344 179.625 102.277344 L 178.9375 102.828125 C 176.753906 103.074219 174.691406 102.644531 174.691406 102.644531 C 164.203125 96.507813 159.394531 78.351563 159.394531 78.351563 C 159.394531 78.351563 160.519531 87.429688 162.144531 90.070313 C 162.832031 94.667969 169.699219 104.667969 169.699219 104.667969 "/>
<path style="stroke:none;fill-rule:nonzero;fill:black;" d="M 167.324219 103.503906 L 164.703125 100.496094 L 159.394531 99.023438 C 159.394531 99.023438 162.457031 102.152344 164.828125 103.503906 Z M 167.324219 103.503906 "/>
<path style="stroke:none;fill-rule:nonzero;fill:black;" d="M 175.253906 100.867188 L 173.007813 99.027344 C 173.007813 99.027344 175.753906 88.472656 177.503906 83.75 C 177.566406 91.910156 177.503906 93.441406 177.503906 93.441406 L 177.066406 93.808594 L 177.53125 94.609375 L 177.878906 99.027344 Z M 175.253906 100.867188 "/>
<path style="stroke:none;fill-rule:nonzero;fill:black;" d="M 175.003906 111.355469 L 178.378906 113.441406 C 178.378906 113.441406 180.0625 118.347656 180.4375 119.453125 C 178.253906 116.8125 174.007813 112.152344 174.007813 112.152344 Z M 175.003906 111.355469 "/>
<path style="stroke:none;fill-rule:nonzero;fill:black;" d="M 176.441406 55.164063 C 176.441406 55.164063 174.691406 58.230469 173.382813 59.582031 C 170.386719 64.671875 167.386719 71.359375 166.328125 77.984375 C 165.453125 76.820313 168.449219 65.347656 172.195313 59.210938 C 170.199219 57.679688 167.136719 59.582031 165.890625 60.746094 C 163.390625 62.035156 160.332031 65.46875 158.769531 68.109375 C 157.210938 70.746094 154.898438 77.984375 154.898438 77.984375 L 154.898438 76.632813 C 154.898438 76.632813 158.210938 60.683594 171.570313 55.164063 C 172.570313 52.15625 175.441406 47.617188 175.441406 47.617188 C 175.441406 47.617188 170.945313 48.109375 170.199219 48.601563 C 169.324219 46.636719 169.011719 45.289063 169.011719 45.289063 L 170.636719 43.445313 L 166.886719 43.816406 L 165.015625 42.34375 L 167.324219 40.132813 L 164.078125 42.402344 C 164.078125 42.402344 157.960938 39.890625 148.78125 39.460938 C 154.152344 36.515625 162.453125 35.042969 180.1875 37.496094 C 182.25 39.828125 184.058594 40.441406 184.058594 40.441406 L 184.058594 40.808594 C 184.058594 40.808594 190.988281 40.871094 193.050781 42.160156 C 195.109375 43.445313 195.050781 45.59375 195.050781 45.59375 C 195.050781 45.59375 195.859375 46.269531 195.734375 47.742188 L 196.796875 49.152344 L 196.796875 49.457031 L 194.425781 48.414063 C 194.425781 48.414063 192.363281 48.476563 189.867188 47.742188 C 187.117188 49.273438 186.808594 49.765625 186.808594 49.765625 C 186.808594 49.765625 179.875 54.058594 176.441406 55.164063 "/>
<path style="stroke:none;fill-rule:nonzero;fill:black;" d="M 165.453125 46.085938 L 167.011719 46.085938 L 167.511719 48.660156 C 167.511719 48.660156 160.035156 56.089844 158.398438 63.566406 C 158.460938 55.714844 164.015625 48.355469 165.453125 46.085938 "/>
<path style="stroke:none;fill-rule:nonzero;fill:black;" d="M 186.121094 39.214844 C 186.121094 39.214844 183.371094 36.796875 181.4375 36.6875 C 181.1875 34.429688 178.378906 32.835938 171.632813 31.117188 C 176.066406 30.136719 184.433594 32.40625 189.617188 35.902344 C 188.867188 39.152344 188.617188 39.152344 186.121094 39.214844 "/>
<path style="stroke:none;fill-rule:nonzero;fill:black;" d="M 187.554688 30.886719 C 187.554688 30.886719 205.539063 24.429688 222.273438 32.097656 C 220.523438 32.34375 204.539063 29.277344 192.363281 33.386719 C 189.367188 31.792969 187.554688 30.886719 187.554688 30.886719 "/>
<path style="stroke:none;fill-rule:nonzero;fill:black;" d="M 219.527344 79.804688 C 219.527344 79.804688 216.363281 79.96875 213.78125 80.703125 L 212.53125 80.132813 L 212.53125 81.113281 C 212.53125 81.113281 207.289063 81.519531 204.125 88.226563 C 201.542969 89.046875 199.210938 89.699219 199.210938 89.699219 C 199.210938 89.699219 198.796875 88.554688 196.878906 87.984375 C 196.878906 87.984375 197.328125 87.339844 197.703125 87.308594 C 196.109375 86.695313 194.707031 84.394531 194.707031 84.394531 C 194.707031 84.394531 196.578125 85.714844 198.980469 85.621094 C 197.734375 84.792969 197.078125 83.472656 197.078125 83.472656 C 197.078125 83.472656 199.105469 84.242188 200.449219 84.425781 C 199.792969 83.628906 199.574219 82.800781 199.574219 82.800781 C 199.574219 82.800781 201.605469 83.503906 202.292969 83.230469 C 202.886719 82.738281 203.167969 82.675781 203.167969 82.675781 L 203.695313 82.984375 L 203.851563 82.371094 C 203.851563 82.371094 205.914063 81.410156 206.476563 79.710938 C 206.289063 73.75 206.226563 71.234375 207.753906 68.507813 C 205.789063 67.699219 204.875 67.085938 204.875 67.085938 L 204.332031 65.859375 C 204.332031 65.859375 203.238281 65.324219 201.933594 65.246094 L 201.875 64.46875 L 201.335938 64.957031 L 199.210938 64.753906 L 198.921875 64.46875 L 198.296875 64.753906 C 198.296875 64.753906 195.652344 64.550781 194.707031 64.835938 C 194.007813 65.449219 193.84375 65.777344 193.84375 65.777344 C 193.84375 65.777344 192.050781 66.675781 192.011719 67.167969 C 191.96875 67.65625 192.300781 69.375 192.300781 69.375 C 192.300781 69.375 191.386719 69.253906 190.71875 68.433594 C 189.761719 69.742188 190.21875 71.132813 190.21875 71.132813 C 190.21875 71.132813 188.554688 70.4375 187.929688 69.210938 C 187.847656 71.664063 190.054688 74.40625 191.386719 75.265625 C 189.59375 76.039063 185.390625 72.113281 184.476563 70.316406 C 183.308594 70.195313 182.476563 71.011719 182.476563 71.011719 C 182.476563 71.011719 182.433594 68.804688 180.730469 66.757813 C 179.023438 64.714844 178.566406 62.382813 178.566406 62.382813 C 178.566406 62.382813 179.6875 62.546875 180.730469 62.054688 C 181.769531 61.566406 182.933594 61.605469 184.058594 61.726563 C 185.183594 61.851563 189.554688 59.355469 189.554688 59.355469 L 190.179688 59.355469 C 190.179688 59.355469 193.675781 57.351563 194.839844 57.3125 C 196.007813 57.269531 201.53125 57.761719 201.53125 57.761719 L 203.582031 54.367188 C 203.582031 54.367188 200.210938 55.390625 199.046875 57.269531 C 197.003906 57.1875 196.671875 57.1875 196.671875 57.1875 C 196.671875 57.1875 197.132813 54.898438 198.339844 53.753906 C 199.546875 52.609375 203.332031 49.089844 205.121094 48.476563 C 206.914063 47.863281 208.453125 47.085938 209.660156 46.515625 C 210.867188 45.941406 213.320313 45.207031 216.902344 44.226563 C 218.902344 43.652344 221.1875 40.460938 222.273438 39.480469 C 223.355469 38.496094 227.765625 32.609375 229.140625 30.03125 C 231.972656 35.71875 233.429688 39.234375 233.222656 40.460938 C 232.554688 42.179688 232.597656 42.875 232.597656 42.875 L 232.929688 43.652344 L 233.242188 43.816406 C 233.242188 43.816406 236.675781 45.695313 237.175781 46.105469 C 237.671875 46.515625 238.507813 47.453125 238.507813 47.453125 L 239.296875 47.535156 L 242.253906 50.03125 L 242.917969 49.910156 L 247.957031 54.570313 L 247.707031 55.472656 C 247.707031 55.472656 249.539063 57.105469 249.828125 58.007813 C 249.746094 58.699219 249.828125 58.945313 249.828125 58.945313 L 250.746094 59.601563 L 250.996094 60.746094 L 251.746094 61.523438 L 251.746094 62.585938 C 251.746094 62.585938 253.324219 65.285156 253.285156 67.453125 C 250.910156 64.058594 248.121094 59.886719 245.207031 60.707031 L 244.832031 61.644531 L 243.417969 62.261719 C 243.417969 62.261719 247.121094 64.386719 249.414063 68.351563 L 249.246094 68.761719 C 249.246094 68.761719 251.328125 71.09375 251.160156 73.792969 C 249.789063 73.382813 248.664063 73.382813 248.664063 73.382813 C 248.664063 73.382813 250.621094 74.035156 251.035156 74.976563 L 250.746094 75.550781 C 250.746094 75.550781 251.535156 75.46875 251.535156 78.453125 C 251.535156 81.441406 251.410156 83.238281 251.078125 83.402344 C 250.746094 83.566406 250.078125 83.8125 250.078125 83.8125 C 250.078125 83.8125 250.660156 84.464844 250.578125 85.898438 C 250.496094 87.328125 249.414063 88.390625 249.414063 88.390625 C 249.414063 88.390625 249.496094 89.007813 249.121094 90.070313 L 248.496094 89.945313 C 248.496094 89.945313 247.746094 98.164063 236.589844 106.34375 C 239.296875 102.707031 241.128906 97.429688 241.128906 94.484375 C 240.878906 93.320313 240.003906 92.644531 240.003906 92.644531 C 240.003906 92.644531 235.386719 93.871094 233.761719 97.0625 C 232.136719 100.25 227.015625 105.015625 223.957031 106.34375 C 220.773438 107 211.410156 106.34375 211.410156 106.34375 C 211.410156 106.34375 219.214844 103.746094 219.777344 102.523438 C 221.148438 102.460938 223.460938 100.25 223.769531 99.515625 C 224.082031 98.78125 225.082031 96.632813 225.082031 96.632813 L 224.207031 93.074219 L 227.582031 90.4375 L 229.203125 88.105469 C 229.203125 88.105469 221.835938 93.074219 217.652344 93.6875 L 219.835938 90.929688 L 219.902344 89.640625 L 221.273438 88.351563 L 220.835938 86.941406 L 221.398438 86.019531 L 221.210938 85.039063 L 221.585938 84.363281 L 221.273438 82.769531 L 223.210938 79.089844 L 221.148438 80.804688 C 221.148438 80.804688 220.585938 76.449219 219.960938 74.917969 C 219.339844 73.382813 216.527344 71.480469 216.214844 70.5 C 215.902344 69.519531 213.25 67.308594 213.25 66.238281 C 212.46875 68.078125 213.03125 69.703125 214.96875 71.144531 C 217.746094 73.566406 219.679688 75.273438 219.527344 79.804688 "/>
<path style="stroke:none;fill-rule:nonzero;fill:black;" d="M 239.589844 94.320313 C 238.214844 95.589844 236.800781 98.65625 235.550781 101.683594 C 234.300781 104.710938 232.304688 107 228.765625 109.902344 C 225.226563 112.808594 221.1875 114.195313 218.191406 115.300781 C 215.195313 116.40625 214.03125 116.527344 214.03125 116.527344 C 214.03125 116.527344 219.359375 112.5625 220.730469 108.839844 C 225.4375 107.082031 227.101563 106.015625 229.640625 103.523438 C 232.179688 101.03125 236.839844 92.808594 239.589844 94.320313 "/>
</svg>
